<svg xmlns="http://www.w3.org/2000/svg" width="80" height="80"><path fill="currentColor" d="M22.323846 19.109021A3.2138462 3.2139968 0 0 0 19.11 22.323017v3.213998a3.2138462 3.2139968 0 0 0 3.213846 3.213996h1.606923v28.925972a6.4276924 6.4279939 0 0 0 6.427693 6.427993h19.283077a6.4276924 6.4279939 0 0 0 6.427694-6.427993V28.751011h1.60692A3.2138462 3.2139968 0 0 0 60.89 25.537015v-3.213998a3.2138462 3.2139968 0 0 0-3.213847-3.213996H46.427692a3.2138462 3.2139968 0 0 0-3.213846-3.213997h-6.427692a3.2138462 3.2139968 0 0 0-3.213846 3.213997zm9.641539 12.855987a1.6069231 1.6069984 0 0 1 1.606923 1.606998v22.497976a1.6069231 1.6069984 0 0 1-3.213846 0V33.572006a1.6069231 1.6069984 0 0 1 1.606923-1.606998zm8.034615 0a1.6069231 1.6069984 0 0 1 1.606923 1.606998v22.497976a1.6069231 1.6069984 0 0 1-3.213846 0V33.572006A1.6069231 1.6069984 0 0 1 40 31.965008Zm9.641539 1.606998v22.497976a1.6069235 1.6069988 0 0 1-3.213847 0V33.572006a1.6069235 1.6069988 0 0 1 3.213847 0z" style="fill:#fff;fill-opacity:1;stroke-width:3.21393"/></svg>