<svg xmlns="http://www.w3.org/2000/svg" width="320" height="80"><path fill="currentColor" d="M35.733556 19.109021a3.2138462 3.2139968 0 0 0-3.213846 3.213996v3.213998a3.2138462 3.2139968 0 0 0 3.213846 3.213996h1.606923v28.925972a6.4276924 6.4279939 0 0 0 6.427693 6.427993h19.283077a6.4276924 6.4279939 0 0 0 6.427694-6.427993V28.751011h1.60692a3.2138462 3.2139968 0 0 0 3.213847-3.213996v-3.213998a3.2138462 3.2139968 0 0 0-3.213847-3.213996H59.837402a3.2138462 3.2139968 0 0 0-3.213846-3.213997h-6.427692a3.2138462 3.2139968 0 0 0-3.213846 3.213997zm9.641539 12.855987a1.6069231 1.6069984 0 0 1 1.606923 1.606998v22.497976a1.6069231 1.6069984 0 0 1-3.213846 0V33.572006a1.6069231 1.6069984 0 0 1 1.606923-1.606998zm8.034615 0a1.6069231 1.6069984 0 0 1 1.606923 1.606998v22.497976a1.6069231 1.6069984 0 0 1-3.213846 0V33.572006a1.6069231 1.6069984 0 0 1 1.606923-1.606998zm9.641539 1.606998v22.497976a1.6069235 1.6069988 0 0 1-3.213847 0V33.572006a1.6069235 1.6069988 0 0 1 3.213847 0z" style="fill:#000;fill-opacity:1;stroke-width:3.21393"/><g aria-label="Cleanify" style="font-weight:700;font-size:50.897px;line-height:1.25;font-family:&quot;Segoe UI&quot;;-inkscape-font-specification:&quot;Segoe UI Bold&quot;;fill:#000;stroke-width:1.27243"><path d="M122.63665 59.244047q-3.90177 1.888756-10.18934 1.888756-8.20118 0-12.898213-4.821298-4.697037-4.821298-4.697037-12.84851 0-8.549106 5.26863-13.867444 5.29349-5.318339 13.71834-5.318339 5.21893 0 8.79762 1.317158v7.728988q-3.57869-2.137276-8.15147-2.137276-5.02011 0-8.10177 3.15621-3.08165 3.156211-3.08165 8.549106 0 5.169226 2.90769 8.25088 2.90769 3.056802 7.82839 3.056802 4.69704 0 8.59881-2.286388zM135.9325 60.511501h-7.85325V22.835793h7.85325zM165.40703 50.023936h-16.60117q.39763 5.542007 6.98343 5.542007 4.19999 0 7.38105-1.988164v5.666268q-3.52899 1.888756-9.1704 1.888756-6.16331 0-9.56804-3.404731-3.40473-3.429583-3.40473-9.543188 0-6.337273 3.6781-10.040228 3.6781-3.702956 9.04615-3.702956 5.56686 0 8.59881 3.305323 3.0568 3.305323 3.0568 8.97159zm-7.28165-4.821298q0-5.467451-4.42367-5.467451-1.88875 0-3.28047 1.565679-1.36686 1.565679-1.66508 3.901772zM191.25316 60.511501h-7.43076V56.85825h-.0994q-2.55976 4.274553-7.57987 4.274553-3.70296 0-5.84023-2.087573-2.11243-2.112424-2.11243-5.616563 0-7.405911 8.77278-8.549105l6.90887-.919526q0-4.175145-4.52308-4.175145-4.54792 0-8.64851 2.708874v-5.914788q1.64023-.84497 4.47337-1.491123 2.85798-.646154 5.19408-.646154 10.88519 0 10.88519 10.860346zm-7.38105-10.338453v-1.714791l-4.62249.596449q-3.82721.497041-3.82721 3.454435 0 1.342011.91952 2.211833.94438.844969 2.53491.844969 2.21184 0 3.60355-1.515975 1.39172-1.540827 1.39172-3.87692zM222.04485 60.511501h-7.82839V46.370685q0-5.914788-4.22485-5.914788-2.03787 0-3.35503 1.565679-1.31716 1.565679-1.31716 3.976328v14.513597h-7.85325V35.063002h7.85325v4.026032h.0994q2.80828-4.647334 8.17632-4.647334 8.4497 0 8.4497 10.487566zM232.23419 31.036969q-1.98817 0-3.25562-1.168046-1.26745-1.192898-1.26745-2.90769 0-1.764495 1.26745-2.882838 1.26745-1.118342 3.25562-1.118342 2.01301 0 3.25562 1.118342 1.26745 1.118343 1.26745 2.882838 0 1.789348-1.26745 2.932542-1.24261 1.143194-3.25562 1.143194zm3.87692 29.474532h-7.85325V35.063002h7.85325zM259.32293 28.849989q-1.51598-.596449-2.90769-.596449-3.77751 0-3.77751 4.100588v2.708874h5.81538v5.790527h-5.81538v19.657972h-7.8284V40.853529h-4.27455v-5.790527h4.27455v-3.156211q0-4.349109 2.83313-7.008278 2.83314-2.659169 7.70414-2.659169 2.3858 0 3.97633.497041zM287.48029 35.063002l-10.33845 27.486367q-3.72781 9.915969-11.23313 9.915969-2.85798 0-4.69703-.646154v-6.262716q1.56568.919525 3.40473.919525 3.03195 0 4.22485-2.857985l1.34201-3.156211-10.33846-25.398795h8.69822l4.74674 15.482827q.44734 1.441419.69586 3.404731h.0994q.22367-1.441419.82012-3.355027l4.79644-15.532531z" style="fill:#000"/></g></svg>